<?xml version="1.0" encoding="utf-8"?>
<!-- Generator: Adobe Illustrator 23.0.6, SVG Export Plug-In . SVG Version: 6.00 Build 0)  -->
<svg version="1.1" id="Layer_1" xmlns="http://www.w3.org/2000/svg" xmlns:xlink="http://www.w3.org/1999/xlink" x="0px" y="0px"
	 viewBox="0 0 1000 218" style="enable-background:new 0 0 1000 218;" xml:space="preserve">
<style type="text/css">
	.st0{fill:#FFFFFF;}
	.st1{fill:#5DD39E;}
</style>
<g>
	<g>
		<path class="st0" d="M75.5,76.7c12.8,0,20.9,6,22.8,18.6h30.2c-1.4-21.1-15-34.2-32.6-39.7v0c-0.3-0.1-0.6-0.1-0.8-0.2
			c-0.4-0.1-0.8-0.2-1.2-0.3c-1.2-0.3-2.4-0.6-3.6-0.9c0,0,0,0-0.1,0c-4.7-1-9.6-1.5-14.5-1.5c-36.6,0-57.5,25.9-57.5,60.9
			c0,33.7,22.8,57.7,56.8,57.7c25.9,0,44.9-12.5,51.9-35.5H96v-0.1c-3.5,6.1-9.9,10.9-21.2,10.9c-17,0-25.7-14-25.7-33.9h0
			C49.2,96,55.7,76.7,75.5,76.7z"/>
		<path class="st0" d="M297.4,85.8c0-27-27-32.1-49.5-32.1c-25.3,0-51.2,8.7-53,37.7h31c1.1-12.2,8.7-17,20.5-17
			c10.9,0,20.1,2,20.1,15.3c0,12.7-17.7,12-36.6,14.8c-19.2,2.6-38.4,8.7-38.4,34.2c0,23.1,17,33.8,38.4,33.8
			c13.7,0,28.1-3.7,37.9-14c0.2,3.7,1.1,7.4,2.2,10.9h31.4c-2.8-4.6-3.9-14.8-3.9-25.1L297.4,85.8L297.4,85.8z M266.5,125.9
			c0,6.8-0.9,25.9-25.1,25.9c-10,0-19-2.8-19-14.4c0-11.3,8.7-14.6,18.3-16.6c9.6-1.7,20.5-2,25.7-6.5V125.9z"/>
		<path class="st0" d="M351.9,81.8h-0.4V59.5H322v110h31v-45.4c0-19.8,7.9-36.2,30.5-36.2c3.7,0,8.3,0.4,11.1,1.1V58.9
			c-2-0.7-4.6-1.1-6.8-1.1C372.8,57.8,357.5,67.6,351.9,81.8z"/>
		<path class="st0" d="M508.1,85.6c0-27-27-32.1-49.5-32.1c-25.3,0-51.2,8.7-53,37.7h31c1.1-12.2,8.7-17,20.5-17
			c10.9,0,20.1,2,20.1,15.3c0,12.7-17.7,12-36.6,14.8c-19.2,2.6-38.4,8.7-38.4,34.2c0,23.1,17,33.8,38.4,33.8
			c13.7,0,28.1-3.7,37.9-14c0.2,3.7,1.1,7.4,2.2,10.9H512c-2.8-4.6-3.9-14.8-3.9-25.1L508.1,85.6L508.1,85.6z M477.1,125.7
			c0,6.8-0.9,26-25.1,26c-10,0-19-2.8-19-14.4c0-11.3,8.7-14.6,18.3-16.6c9.6-1.7,20.5-2,25.7-6.5L477.1,125.7L477.1,125.7z"/>
		<polygon class="st0" points="575.9,133.6 575.4,133.6 551.7,56.6 519.2,56.6 557.8,169.4 592.2,169.4 630.4,56.6 599.7,56.6 		"/>
		<path class="st0" d="M888.4,53.5c-34.2,0-57.6,25.7-57.6,59.5c0,34.9,22,59.3,57.6,59.3c2.3,0,4.5-0.1,6.7-0.3v-23.6
			c-1.8,0.4-3.7,0.6-5.6,0.6c-17.2,0-26.8-8.9-27.7-28.6h81.3C945.4,85.8,926.8,53.5,888.4,53.5z M861.8,100.9
			c0.4-8.7,6.1-24,25.7-24c15,0,21.8,8.3,24.6,24H861.8z"/>
		<rect x="647.4" y="57.8" class="st0" width="31" height="111.7"/>
		<rect x="647.4" y="11" class="st0" width="30.8" height="30.8"/>
		<rect x="142.9" y="14.9" class="st0" width="33.6" height="154.6"/>
		<path class="st0" d="M773.7,53.5c-13.1,0-26.6,6.1-34.5,18.8h-0.7V56.6h-29.4v112.9h31v-59.2c0-22.9,7.2-32.3,24-32.3
			c14.4,0,19.8,9.2,19.8,27.7v63.7h31V100C815,72.1,806.7,53.5,773.7,53.5z"/>
	</g>
	<polygon class="st1" points="922.8,147.9 922.8,207 949.2,207 949.2,174.5 981.8,174.5 981.8,147.9 	"/>
</g>
</svg>
