<svg id="Group_42" data-name="Group 42" xmlns="http://www.w3.org/2000/svg" viewBox="0 0 169 34.41">
  <defs>
    <style>
      .cls-1 {
        fill: #264653;
      }

      .cls-2 {
        fill: #fff;
      }

      .cls-3 {
        fill: #5dd39e;
      }
    </style>
  </defs>
  <g id="Group_41" data-name="Group 41">
    <path id="Path_671" data-name="Path 671" class="cls-1" d="M13.634,25.808a3.954,3.954,0,0,1-3.7,1.883c-2.987,0-4.48-2.467-4.48-5.973h0c0-2.922,1.169-6.3,4.61-6.3,2.272,0,3.636,1.039,4.025,3.246h5.324A7.583,7.583,0,0,0,13.7,11.719h0c-.065,0-.13,0-.13-.065-.065,0-.13-.065-.195-.065a2.307,2.307,0,0,0-.649-.13h0a11.182,11.182,0,0,0-2.532-.26C3.636,11.2,0,15.745,0,21.913c0,5.908,4.025,10.128,9.934,10.128,4.545,0,7.856-2.207,9.09-6.233Z" transform="translate(0 -3.928)"/>
    <path id="Path_672" data-name="Path 672" class="cls-1" d="M47.349,18.122c.325-5.064,4.869-6.622,9.284-6.622,3.96,0,8.7.909,8.7,5.648V27.472a9.891,9.891,0,0,0,.714,4.415H60.529A8.807,8.807,0,0,1,60.139,30a9.039,9.039,0,0,1-6.687,2.467c-3.766,0-6.752-1.883-6.752-5.908,0-4.48,3.376-5.519,6.752-6.038,3.311-.519,6.428-.39,6.428-2.6,0-2.337-1.623-2.662-3.506-2.662-2.078,0-3.376.844-3.571,2.987H47.349Zm12.6,4.025c-.909.779-2.857.844-4.545,1.169s-3.181.909-3.181,2.922,1.558,2.532,3.311,2.532c4.22,0,4.415-3.376,4.415-4.545Z" transform="translate(-16.38 -4.034)"/>
    <path id="Path_673" data-name="Path 673" class="cls-1" d="M82.1,12.925h5.194v3.9h.065a7.041,7.041,0,0,1,6.3-4.22,3.4,3.4,0,0,1,1.169.195v5.259a9,9,0,0,0-1.948-.195c-3.96,0-5.324,2.857-5.324,6.363v7.986H82.1Z" transform="translate(-28.797 -4.419)"/>
    <path id="Path_674" data-name="Path 674" class="cls-1" d="M104.349,18.122c.325-5.064,4.869-6.622,9.284-6.622,3.96,0,8.7.909,8.7,5.648V27.407a9.891,9.891,0,0,0,.714,4.415h-5.519a8.806,8.806,0,0,1-.39-1.883,9.039,9.039,0,0,1-6.687,2.467c-3.766,0-6.752-1.883-6.752-5.908,0-4.48,3.376-5.519,6.752-6.038,3.311-.519,6.428-.39,6.428-2.6,0-2.337-1.623-2.662-3.506-2.662-2.078,0-3.376.844-3.571,2.987h-5.454Zm12.531,4.025c-.909.779-2.857.844-4.545,1.169s-3.181.909-3.181,2.922,1.558,2.532,3.311,2.532c4.22,0,4.415-3.376,4.415-4.545Z" transform="translate(-36.373 -4.034)"/>
    <path id="Path_675" data-name="Path 675" class="cls-1" d="M148.19,32.1h-6.038L135.4,12.3h5.713l4.155,13.5h.065l4.155-13.5h5.389Z" transform="translate(-47.491 -4.314)"/>
    <path id="Path_676" data-name="Path 676" class="cls-1" d="M224.954,23.287c.13,3.441,1.818,5,4.869,5,2.207,0,3.96-1.363,4.285-2.532h4.8c-1.558,4.675-4.8,6.687-9.284,6.687-6.233,0-10.128-4.285-10.128-10.388,0-5.908,4.09-10.453,10.128-10.453,6.752,0,10,5.648,9.609,11.751H224.954Zm8.895-3.441c-.519-2.727-1.688-4.22-4.35-4.22a4.34,4.34,0,0,0-4.545,4.22Z" transform="translate(-76.989 -4.069)"/>
    <rect id="Rectangle_150" data-name="Rectangle 150" class="cls-1" width="5.454" height="19.607" transform="translate(110.373 8.181)"/>
    <rect id="Rectangle_151" data-name="Rectangle 151" class="cls-1" width="5.389" height="5.389" transform="translate(110.373)"/>
    <rect id="Rectangle_152" data-name="Rectangle 152" class="cls-1" width="5.908" height="27.139" transform="translate(21.88 0.649)"/>
    <path id="Path_677" data-name="Path 677" class="cls-1" d="M197.962,11.5a7.1,7.1,0,0,0-6.038,3.311h-.13V12.084H186.6v19.8h5.454V21.5c0-4.025,1.234-5.648,4.22-5.648,2.532,0,3.506,1.623,3.506,4.869V31.886h5.454V19.616C205.234,14.746,203.74,11.5,197.962,11.5Z" transform="translate(-65.45 -4.034)"/>
  </g>
  <path id="Path_678" data-name="Path 678" class="cls-2" d="M236.9,29.9V40.093h5.519V35.808h5.064V29.9Z" transform="translate(-83.092 -10.487)"/>
  <path id="Path_679" data-name="Path 679" class="cls-3" d="M244.4,37V47.388h4.675V41.675h5.648V37Z" transform="translate(-85.723 -12.978)"/>
</svg>
